<?xml version="1.0" encoding="utf-8"?>
<!-- Generator: Adobe Illustrator 18.1.1, SVG Export Plug-In . SVG Version: 6.00 Build 0)  -->
<svg version="1.1" id="Layer_1" xmlns="http://www.w3.org/2000/svg" xmlns:xlink="http://www.w3.org/1999/xlink" x="0px" y="0px"
	 viewBox="0 0 250 125" enable-background="new 0 0 250 125" xml:space="preserve">
<rect width="250" height="125"/>
<path fill="#FFFFFF" stroke="#000000" stroke-miterlimit="10" d="M95.6,83.8C88.5,75,87.8,62,91.1,48.4s20.7-22.3,33.1-21.6
	c12.4,0.7,27.3,8.6,31.7,16.3c6.7,11.7,7.8,33.6-5.5,46.2s-34.9,9-39.7,6.6C106,93.4,98.6,87.6,95.6,83.8z"/>
<g>
	<g>
		<g>
			<path fill="#FFFFFF" d="M145.2,47.1c0,0,4.2,22.8,2.9,25.3"/>
			<g>
				<path d="M143.3,47.6c0.7,3.6,1.2,7.1,1.8,10.7c0.6,3.7,2.5,9.9,1.1,13.6c-0.9,2.4,3,3.5,3.9,1.1c1.4-3.9-0.3-9.7-0.8-13.7
					c-0.6-4.3-1.3-8.5-2.1-12.7C146.7,44,142.8,45.1,143.3,47.6L143.3,47.6z"/>
			</g>
		</g>
		<g>
			<path fill="#FFFFFF" d="M139.4,48.4c0,0,5.6,23,2.1,24.1c-5.5,1.7-16.3-4-12.8-8.7c1.9-2.6,5.1-4.3,6-0.5
				c1,4.1,2.1,10.8-0.5,10.8c0,0-4.9,1.7-7.9,0.7c-3.8-1.3-4.3-10.5-4.3-10.5s0.5,7.4-3.2,6.8c-1.5-0.3-4.7-6.3-4.2-5
				c1.8,4.7,1.8,11.6-5.9,11.6s-8.9-3.7-6-7.7"/>
			<g>
				<path d="M137.5,48.9c0.8,3.2,1.4,6.4,2,9.7c0.5,2.7,0.9,5.3,1.1,8c0,0.8,0.3,2.3,0,3.1c-0.5,1.4-0.3,1.1-2,1.1
					c-2.1,0-11.1-3.1-7.7-6.5c2.6-2.5,3.7,6.7,2.6,8c-0.6,0.7-4,0.9-4.7,0.9c-2.7-0.1-3.2-1.4-3.9-3.6c-0.5-1.7-0.8-3.4-0.9-5.2
					c-0.2-2.6-4.1-2.6-4,0c0,0.8,0.2,4.6-0.7,4.7c-0.8,0.1-2.6-3.8-3.3-4.5c-1.4-1.5-3.8,0.1-3.3,1.9c0.6,2.4,1.7,5.1,0.2,7.4
					c-2.2,3.4-11.8,2.3-8.4-2.8c1.4-2.1-2-4.1-3.5-2c-4.8,7.1,2.3,11.6,9.3,10.6c7.7-1.1,7.6-8.1,6.2-14.2c-1.1,0.6-2.2,1.3-3.3,1.9
					c2.1,2.3,3.6,7.2,7.7,5.5c3.1-1.3,3.4-5.6,3.2-8.5c-1.3,0-2.7,0-4,0c0.5,7.2,2.9,13.9,11.3,12.5c3.2-0.5,5.8-1.1,6.4-4.7
					c0.5-3.3,0-10.2-2.9-12.3c-2.9-2.1-6.7,0.7-8.1,3.3c-1.7,3.2,0.1,6.2,2.6,8.2c4.4,3.5,14.6,6.3,15.2-1.7
					c0.6-7.1-1.6-15-3.3-21.8C140.7,45.4,136.9,46.4,137.5,48.9L137.5,48.9z"/>
			</g>
		</g>
	</g>
	<g>
		<path fill="#FFFFFF" d="M117.4,57.8c1,1.8,0.5,0.9,0.5,0.9"/>
		<g>
			<path d="M115.7,58.8c0.2,0.4,0.4,0.7,0.6,1.1c0.5,0.9,1.8,1.3,2.7,0.7c0.9-0.6,1.3-1.8,0.7-2.7c0-0.1-0.1-0.1-0.1-0.2
				c-0.5-0.9-1.8-1.3-2.7-0.7c-0.9,0.6-1.3,1.8-0.7,2.7c0,0.1,0.1,0.1,0.1,0.2c1.2-0.7,2.3-1.3,3.5-2c-0.2-0.4-0.4-0.7-0.6-1.1
				c-0.5-0.9-1.8-1.3-2.7-0.7C115.5,56.6,115.1,57.8,115.7,58.8L115.7,58.8z"/>
		</g>
	</g>
	<g>
		<path fill="#FFFFFF" d="M111.2,58.2c0.5,0.9,0.5,0.9,0.5,0.9"/>
		<g>
			<path d="M109.4,59.2c0.2,0.3,0.3,0.6,0.5,0.9c0.5,0.9,1.8,1.3,2.7,0.7c0.9-0.6,1.3-1.8,0.7-2.7c-0.2-0.3-0.3-0.6-0.5-0.9
				c-0.5-0.9-1.8-1.3-2.7-0.7C109.2,57.1,108.9,58.2,109.4,59.2L109.4,59.2z"/>
		</g>
	</g>
	<g>
		<path fill="#FFFFFF" d="M121.2,56l1,1.8"/>
		<g>
			<path d="M119.4,57c0.3,0.6,0.7,1.2,1,1.8c0.5,0.9,1.8,1.3,2.7,0.7c0.9-0.6,1.3-1.8,0.7-2.7c-0.3-0.6-0.7-1.2-1-1.8
				c-0.5-0.9-1.8-1.3-2.7-0.7C119.2,54.9,118.9,56.1,119.4,57L119.4,57z"/>
		</g>
	</g>
	<g>
		<path fill="#FFFFFF" d="M127.7,56c1,1.8,1,1.8,1,1.8"/>
		<g>
			<path d="M126,57c0.3,0.6,0.7,1.2,1,1.8c0.5,0.9,1.8,1.3,2.7,0.7c0.9-0.6,1.3-1.8,0.7-2.7c-0.3-0.6-0.7-1.2-1-1.8
				c-0.5-0.9-1.8-1.3-2.7-0.7C125.8,54.9,125.4,56.1,126,57L126,57z"/>
		</g>
	</g>
	<g>
		<path fill="#FFFFFF" d="M132.7,54.2c0.3,1.9-0.2,2.7-0.2,2.7"/>
		<g>
			<path d="M130.7,54.7c-0.1-0.4,0,0.2,0,0.2c0,0.2,0,0.3,0,0.5c0,0.1,0,0.3,0,0.4c0,0.4,0.1-0.4,0-0.1c0,0.1-0.1,0.3-0.1,0.4
				c0,0.3,0.3-0.6,0.1-0.3c-0.5,0.9-0.3,2.2,0.7,2.7c0.9,0.5,2.2,0.3,2.7-0.7c0.7-1.3,0.6-2.9,0.4-4.3c-0.2-1-1.5-1.7-2.5-1.4
				C131,52.6,130.6,53.6,130.7,54.7L130.7,54.7z"/>
		</g>
	</g>
</g>
</svg>
