<?xml version="1.0" encoding="utf-8"?>
<!-- Generator: Adobe Illustrator 18.1.1, SVG Export Plug-In . SVG Version: 6.00 Build 0)  -->
<svg version="1.1" id="Layer_1" xmlns="http://www.w3.org/2000/svg" xmlns:xlink="http://www.w3.org/1999/xlink" x="0px" y="0px"
	 viewBox="0 0 250 125" enable-background="new 0 0 250 125" xml:space="preserve">
<rect fill="#39B54A" width="250" height="125"/>
<rect y="42" fill="#FFFFFF" width="250" height="42"/>
<path fill="#FFFFFF" stroke="#39B44A" stroke-miterlimit="10" d="M125,60.5l-6.3,32.1c0,0,5.1-2,5.6,1.1s-1.5,4.6-1.5,4.6
	s-0.6-4.1-4.1-2.6s-5.8,0-5.8,0l-0.8,2.6c0,0-3.9-0.9-3.5-3.6c0,0-1.7,0.5-3.6-0.4c-0.9-0.4-1.6-1.8-1.6-1.8l-1.8,2.6
	c0,0-3.5-3.5,0.5-5.5c2-1,4.4,1,4.4,1l4.1-16.8"/>
<path fill="#FFFFFF" stroke="#39B44A" stroke-miterlimit="10" d="M124.8,60.5l6.3,32.1c0,0-5.1-2-5.6,1.1s1.5,4.6,1.5,4.6
	s0.6-4.1,4.1-2.6s5.8,0,5.8,0l0.8,2.6c0,0,3.9-0.9,3.5-3.6c0,0,1.7,0.5,3.6-0.4c0.9-0.4,1.6-1.8,1.6-1.8l1.8,2.6
	c0,0,3.5-3.5-0.5-5.5c-2-1-4.4,1-4.4,1L139.2,74"/>
<path fill="#FFFFFF" stroke="#39B44A" stroke-miterlimit="10" d="M92,93.8c0,0,2.5-51.1,2.8-55.8s5.3-5,6-5.1
	c5.1-0.9,9.1,5.9,16.1,4.4c0,0,11.4-0.4,15.9,0.1s13.1-4.6,15.9-4.6s6.1,1.3,6.5,5s2.8,56,2.8,56l-33-33.2L92,93.8z"/>
<path fill="#FFFFFF" stroke="#39B44A" stroke-miterlimit="10" d="M125.2,46.8c6.1,0,9.8-6.1,9.8-6.1s-4.9-1.9-4.6-12.6
	s-0.4-11.1-3.6-11.2c-3.3-0.1-6-0.2-8.9,0.1c-2.9,0.3-2.4,3.9-2.4,3.9s3.3-1.8,4.4,1.5c0.5,1.5,0.6,2.6,0.6,6.1
	c0,6.9-5.9,12.4-5.9,12.4S119.2,46.8,125.2,46.8z"/>
</svg>
