<?xml version="1.0" encoding="utf-8"?>
<!-- Generator: Adobe Illustrator 18.1.1, SVG Export Plug-In . SVG Version: 6.00 Build 0)  -->
<svg version="1.1" id="Layer_1" xmlns="http://www.w3.org/2000/svg" xmlns:xlink="http://www.w3.org/1999/xlink" x="0px" y="0px"
	 viewBox="0 0 100 100" enable-background="new 0 0 100 100" xml:space="preserve">
<path stroke="#000000" stroke-width="0.125" stroke-linejoin="round" stroke-miterlimit="10" d="M16.2,93.6l25.2-54.3
	c0,0,12.9,7.6,11.2,9.4c-1.7,1.9-7.9,4-4.2,6.5s16.8,11.4,14.6,12.6c-2.4,1.3-8.1,1.3-0.2,5.5c7.9,4.2,7.9,4.2,7.9,4.2l16-23.6
	l-6.1-4c0,0,3.9-1.9-0.4-6c-2.9-2.8-6.6-5-6.6-5s8.5-4.2,1-11.1S52.6,6,52.6,6L14,92.6L16.2,93.6z"/>
</svg>
