<?xml version="1.0" encoding="utf-8"?>
<!-- Generator: Adobe Illustrator 18.1.1, SVG Export Plug-In . SVG Version: 6.00 Build 0)  -->
<svg version="1.1" id="Layer_1" xmlns="http://www.w3.org/2000/svg" xmlns:xlink="http://www.w3.org/1999/xlink" x="0px" y="0px"
	 viewBox="0 0 100 100" enable-background="new 0 0 100 100" xml:space="preserve">
<path d="M22.3,95.6c-3.6,0-6.8-0.5-9.1-1.2l7-23c0,0-0.1,0-0.3-0.1c0.7,0.2,7.3,1.6,13.6-4.7c4.5-4.5,4.8-8.1,5.1-16
	c0.4-9,0.9-21.3,12.8-33.3C65.8,3.1,82.5,4.5,84.4,4.7l-2.6,23.9c0,0,0.1,0,0.2,0c-0.3,0-7.3-0.4-13.5,5.8
	c-5.3,5.3-5.5,9.8-5.8,17.3c-0.4,8.7-0.8,20.7-12.1,32C41.3,92.9,30.5,95.6,22.3,95.6z"/>
</svg>
